# xmcd CD database file
#
# Track frame offsets:
#	150
#	20034
#	41720
#	62497
#	80542
#	102236
#	123017
#	147926
#	169603
#	190367
#	209078
#
# Disc length: 2900 seconds
#
# Revision: 10
# Processed by: cddbd v1.5.1PL0 Copyright (c) Steve Scherf et al.
# Submitted via: CDex 1.50beta8
#
DISCID=9a0b520b
DTITLE=七海るちあ／宝生波音／洞院リナ - マーメイドメロディー ぴちぴちピッチ マーメイドメロディー ボーカルコレクション ジュエルBOX2
DYEAR=2004
DGENRE=Anime
TTITLE0=Rainbow Notes♪ - 神戸みゆき
TTITLE1=夢のその先へ - 中田あすみ(七海るちあ)
TTITLE2=KIZUNA - 中田あすみ(七海るちあ)
TTITLE3=オーロラの風に乗って - 小暮英麻(かれん)
TTITLE4=夢のその先へ - 寺門仁美(宝生波音)
TTITLE5=KIZUNA - 寺門仁美(宝生波音)
TTITLE6=Return to the Sea - 植田佳奈(沙羅)
TTITLE7=夢のその先へ - 浅野まゆみ(洞院リナ)
TTITLE8=KIZUNA - 浅野まゆみ(洞院リナ)
TTITLE9=世界で一番早く朝が来る場所 - 中田あすみ、寺門仁美、浅野まゆみ
TTITLE10=Super Love Songs! コーラスバージョン - 中田あすみ、寺門仁美、浅野まゆみ
EXTD=YEAR: 2004
EXTT0=
EXTT1=
EXTT2=
EXTT3=
EXTT4=
EXTT5=
EXTT6=
EXTT7=
EXTT8=
EXTT9=
EXTT10=
PLAYORDER=
